<?xml version="1.0"?>
<svg xmlns="http://www.w3.org/2000/svg" xmlns:xlink="http://www.w3.org/1999/xlink" version="1.1" viewBox="0 0 192 192" width="36px" height="36px"><g fill="none" fill-rule="nonzero" stroke="none" stroke-width="1" stroke-linecap="butt" stroke-linejoin="miter" stroke-miterlimit="10" stroke-dasharray="" stroke-dashoffset="0" font-family="none" font-weight="none" font-size="none" text-anchor="none" style="mix-blend-mode: normal"><path d="M0,192v-192h192v192z" fill="none"/><g fill="#ff6200"><path d="M181.0944,81.48864l-22.6944,-3.70944c-1.32864,-4.55424 -3.14496,-8.93184 -5.41824,-13.0752l13.248,-18.88128c1.07136,-1.52448 0.88704,-3.60192 -0.43008,-4.92288l-14.93376,-14.92608c-1.33248,-1.32864 -3.42912,-1.50144 -4.95744,-0.39936l-18.59712,13.36704c-4.18176,-2.31168 -8.59776,-4.1472 -13.17888,-5.47968l-3.95904,-22.60224c-0.32256,-1.83552 -1.91616,-3.17952 -3.7824,-3.17952h-21.12c-1.8816,0 -3.48672,1.3632 -3.79008,3.22176l-3.67104,22.47936c-4.608,1.3248 -9.03168,3.14112 -13.19808,5.42208l-18.5472,-13.248c-1.53216,-1.0944 -3.61728,-0.91776 -4.94976,0.40704l-14.92608,14.92608c-1.31712,1.31712 -1.50144,3.39072 -0.43008,4.9152l13.05216,18.67392c-2.3232,4.2048 -4.17408,8.65536 -5.52192,13.2864l-22.39104,3.72864c-1.85088,0.3072 -3.21024,1.91232 -3.21024,3.78624v21.12c0,1.8624 1.33632,3.456 3.168,3.7824l22.39104,3.97056c1.34016,4.61952 3.19104,9.07008 5.52192,13.2864l-13.21344,18.48192c-1.09056,1.52448 -0.91776,3.61728 0.40704,4.94976l14.92992,14.94144c1.31712,1.31712 3.39456,1.50144 4.91904,0.43008l18.7008,-13.09824c4.19712,2.30784 8.63232,4.13952 13.2288,5.46816l3.74784,22.50624c0.30336,1.84704 1.90464,3.20256 3.7824,3.20256h21.12c1.8624,0 3.456,-1.33632 3.77856,-3.168l4.0128,-22.6176c4.60416,-1.35552 9.01632,-3.19872 13.1712,-5.5104l18.8352,13.21344c1.52832,1.07904 3.60192,0.89088 4.92288,-0.42624l14.92992,-14.94144c1.32864,-1.33248 1.50144,-3.43296 0.39936,-4.96128l-13.43232,-18.65088c2.27712,-4.1472 4.08576,-8.53248 5.40288,-13.08672l22.72512,-3.98976c1.83936,-0.32256 3.17568,-1.92 3.17568,-3.7824v-21.12c0.00384,-1.8816 -1.35936,-3.48672 -3.21792,-3.79008zM96,122.88c-14.84544,0 -26.88,-12.03456 -26.88,-26.88c0,-14.84544 12.03456,-26.88 26.88,-26.88c14.84544,0 26.88,12.03456 26.88,26.88c0,14.84544 -12.03456,26.88 -26.88,26.88z"/></g></g></svg>
