<?xml version="1.0"?>
<svg xmlns="http://www.w3.org/2000/svg" xmlns:xlink="http://www.w3.org/1999/xlink" version="1.1" viewBox="0 0 192 192" width="36px" height="36px"><g fill="none" fill-rule="nonzero" stroke="none" stroke-width="1" stroke-linecap="butt" stroke-linejoin="miter" stroke-miterlimit="10" stroke-dasharray="" stroke-dashoffset="0" font-family="none" font-weight="none" font-size="none" text-anchor="none" style="mix-blend-mode: normal"><path d="M0,192v-192h192v192z" fill="none"/><g fill="#fb6e1f"><g id="surface1"><path d="M147.69231,15c-4.06731,0 -7.38462,3.31731 -7.38462,7.38462v35.30769l-39,-39c-2.88462,-2.88462 -7.73077,-2.88462 -10.61538,0l-86.53846,86.76923c-2.88462,2.88462 -2.88462,7.5 0,10.38462c2.88462,2.88462 7.5,2.88462 10.38462,0l81.46154,-81.46154l81.69231,81.69231c1.44231,1.44231 3.40385,2.30769 5.30769,2.30769c1.90385,0 3.63462,-0.86538 5.07692,-2.30769c2.88462,-2.88462 2.88462,-7.5 0,-10.38462l-25.61538,-25.61538v-57.69231c0,-4.06731 -3.31731,-7.38462 -7.38462,-7.38462zM96,48l-81.23077,81.23077v40.61538c0,12.23077 9.92308,22.15385 22.15385,22.15385h118.15385c12.23077,0 22.15385,-9.92308 22.15385,-22.15385v-40.61538zM81.23077,118.15385h29.53846c4.06731,0 7.38462,3.31731 7.38462,7.38462v44.30769c0,4.06731 -3.31731,7.38462 -7.38462,7.38462h-29.53846c-4.06731,0 -7.38462,-3.31731 -7.38462,-7.38462v-44.30769c0,-4.06731 3.31731,-7.38462 7.38462,-7.38462z"/></g></g></g></svg>
